<svg width="159" height="28" viewBox="0 0 159 28" fill="none" xmlns="http://www.w3.org/2000/svg">
<path d="M3.286 4.26C3.286 3.206 3.14133 2.431 2.852 1.935C2.56267 1.41833 1.984 1.16 1.116 1.16H0.496V0.539999H3.286C4.05067 0.539999 4.619 0.643332 4.991 0.849999C5.38367 1.036 5.66267 1.38733 5.828 1.904C5.99333 2.42067 6.076 3.206 6.076 4.26V9.84H15.376V0.539999H18.166V17.28C18.166 18.334 18.3107 19.1193 18.6 19.636C18.8893 20.132 19.468 20.38 20.336 20.38H20.956V21H18.166C17.4013 21 16.8227 20.907 16.43 20.721C16.058 20.5143 15.7893 20.1527 15.624 19.636C15.4587 19.1193 15.376 18.334 15.376 17.28V11.08H6.076V21H3.286V4.26ZM26.7743 21.31C26.113 21.31 25.4413 21.1757 24.7593 20.907C24.0773 20.6177 23.4883 20.1527 22.9923 19.512C22.517 18.8713 22.2793 18.024 22.2793 16.97C22.2793 15.3993 23.0026 14.2833 24.4493 13.622C25.9166 12.9607 27.8283 12.63 30.1843 12.63H31.1143C31.1143 10.6047 30.8353 9.22 30.2773 8.476C29.7193 7.732 28.9133 7.36 27.8593 7.36C26.9293 7.36 26.1853 7.55633 25.6273 7.949C25.0693 8.34167 24.6766 9.02367 24.4493 9.995H23.0543C23.0543 9.29233 23.0956 8.74467 23.1783 8.352C23.261 7.93867 23.478 7.55633 23.8293 7.205C24.2013 6.833 24.811 6.56433 25.6583 6.399C26.5263 6.213 27.4666 6.12 28.4793 6.12C30.1533 6.12 31.476 6.57467 32.4473 7.484C33.4186 8.37267 33.9043 10.088 33.9043 12.63V21H32.3543L31.2693 19.605H31.1143C30.7423 20.0803 30.1946 20.4833 29.4713 20.814C28.748 21.1447 27.849 21.31 26.7743 21.31ZM28.1693 19.915C28.8513 19.915 29.4196 19.7497 29.8743 19.419C30.329 19.0883 30.7423 18.6337 31.1143 18.055V13.87H30.1843C28.655 13.87 27.446 14.1593 26.5573 14.738C25.6686 15.296 25.2243 16.04 25.2243 16.97C25.2243 17.9207 25.5033 18.6543 26.0613 19.171C26.64 19.667 27.3426 19.915 28.1693 19.915ZM44.2101 21.31C42.8048 21.31 41.5855 20.9793 40.5521 20.318C39.5188 19.636 38.7335 18.7163 38.1961 17.559C37.6588 16.4017 37.3901 15.1203 37.3901 13.715C37.3901 12.3097 37.6588 11.0283 38.1961 9.871C38.7335 8.71367 39.5188 7.80433 40.5521 7.143C41.5855 6.461 42.8048 6.12 44.2101 6.12C45.6155 6.12 46.8348 6.461 47.8681 7.143C48.9015 7.80433 49.6868 8.71367 50.2241 9.871C50.7615 11.0283 51.0301 12.3097 51.0301 13.715C51.0301 15.1203 50.7615 16.4017 50.2241 17.559C49.6868 18.7163 48.9015 19.636 47.8681 20.318C46.8348 20.9793 45.6155 21.31 44.2101 21.31ZM44.2101 20.07C44.9748 20.07 45.6465 19.791 46.2251 19.233C46.8245 18.675 47.2791 17.9103 47.5891 16.939C47.9198 15.9677 48.0851 14.893 48.0851 13.715C48.0851 12.537 47.9198 11.4623 47.5891 10.491C47.2791 9.51967 46.8245 8.755 46.2251 8.197C45.6465 7.639 44.9748 7.36 44.2101 7.36C43.4455 7.36 42.7635 7.639 42.1641 8.197C41.5855 8.755 41.1308 9.51967 40.8001 10.491C40.4901 11.4623 40.3351 12.537 40.3351 13.715C40.3351 14.893 40.4901 15.9677 40.8001 16.939C41.1308 17.9103 41.5855 18.675 42.1641 19.233C42.7635 19.791 43.4455 20.07 44.2101 20.07ZM64.8336 21H63.5936V4.26C63.5936 3.268 63.3766 2.50333 62.9426 1.966C62.5293 1.42867 61.8163 1.16 60.8036 1.16H60.4936V0.539999H62.5086C63.4593 0.539999 64.2653 0.694999 64.9266 1.005C65.5879 1.315 66.1769 1.78 66.6936 2.4L77.5436 15.885V0.539999H78.7836V21.31H78.1636L64.8336 4.725V21ZM88.8799 27.2C86.7926 27.2 85.1289 26.8177 83.8889 26.053C82.6696 25.2883 82.0599 24.069 82.0599 22.395C82.0599 21.4443 82.3802 20.6177 83.0209 19.915C83.6616 19.2123 84.4779 18.6957 85.4699 18.365C84.6432 17.9103 84.2299 17.2903 84.2299 16.505C84.2299 16.0917 84.3229 15.7713 84.5089 15.544C84.6949 15.3167 84.9636 15.0687 85.3149 14.8C84.6536 14.4693 84.0956 13.9527 83.6409 13.25C83.2069 12.5473 82.9899 11.7207 82.9899 10.77C82.9899 7.67 84.9532 6.12 88.8799 6.12H94.6149V6.895L92.5999 7.205V7.36C93.2406 7.69067 93.7572 8.15567 94.1499 8.755C94.5632 9.33367 94.7699 10.0053 94.7699 10.77C94.7699 13.87 92.8066 15.42 88.8799 15.42C86.7099 15.42 85.6249 15.7817 85.6249 16.505C85.6249 17.2283 86.7099 17.59 88.8799 17.59C90.8846 17.59 92.5172 17.993 93.7779 18.799C95.0592 19.5843 95.6999 20.783 95.6999 22.395C95.6999 24.069 95.0799 25.2883 93.8399 26.053C92.6206 26.8177 90.9672 27.2 88.8799 27.2ZM88.8799 14.335C89.8099 14.335 90.5539 14.056 91.1119 13.498C91.6906 12.9193 91.9799 12.01 91.9799 10.77C91.9799 9.592 91.6906 8.70333 91.1119 8.104C90.5539 7.50467 89.8099 7.205 88.8799 7.205C87.9499 7.205 87.1956 7.49433 86.6169 8.073C86.0589 8.631 85.7799 9.53 85.7799 10.77C85.7799 12.01 86.0589 12.9193 86.6169 13.498C87.1956 14.056 87.9499 14.335 88.8799 14.335ZM88.8799 25.96C90.1199 25.96 91.1016 25.6603 91.8249 25.061C92.5482 24.4823 92.9099 23.5937 92.9099 22.395C92.9099 20.3283 91.6699 19.14 89.1899 18.83L87.4849 18.675C86.6376 19.0057 85.9866 19.4707 85.5319 20.07C85.0772 20.6693 84.8499 21.4443 84.8499 22.395C84.8499 23.5937 85.2116 24.4823 85.9349 25.061C86.6582 25.6603 87.6399 25.96 88.8799 25.96ZM104.045 21.31C102.495 21.31 101.224 20.8967 100.232 20.07C99.2604 19.2433 98.7747 17.7967 98.7747 15.73V10.15C98.7747 9.096 98.6301 8.321 98.3407 7.825C98.0514 7.30833 97.4727 7.05 96.6047 7.05H96.2947V6.43H98.7747C99.5394 6.43 100.108 6.53333 100.48 6.74C100.872 6.926 101.151 7.27733 101.317 7.794C101.482 8.31067 101.565 9.096 101.565 10.15V15.73C101.565 17.1767 101.885 18.241 102.526 18.923C103.187 19.5843 104.003 19.915 104.975 19.915C106.07 19.915 107.103 19.3673 108.075 18.272V6.43H110.865V21H109.315L108.23 19.76H108.075C107.641 20.194 107.072 20.566 106.37 20.876C105.688 21.1653 104.913 21.31 104.045 21.31ZM116.357 26.27C117.369 26.27 118.196 26.0323 118.837 25.557C119.498 25.1023 120.066 24.255 120.542 23.015L121.162 21.31L116.202 9.22C115.623 7.732 114.486 6.90533 112.792 6.74V6.12H115.427C117.225 6.12 118.465 6.94667 119.147 8.6L122.681 17.187L126.587 6.43H128.137L122.092 23.015C121.492 24.6477 120.831 25.7533 120.108 26.332C119.384 26.9107 118.444 27.2 117.287 27.2H116.357V26.27ZM136.658 21.31C135.253 21.31 134.064 20.9793 133.093 20.318C132.122 19.636 131.388 18.7267 130.892 17.59C130.396 16.4327 130.148 15.141 130.148 13.715C130.148 12.3097 130.396 11.0283 130.892 9.871C131.388 8.71367 132.101 7.80433 133.031 7.143C133.982 6.461 135.087 6.12 136.348 6.12C138.435 6.12 139.985 6.709 140.998 7.887C142.031 9.04433 142.548 10.7287 142.548 12.94L142.486 14.18H133.093C133.093 15.916 133.465 17.3317 134.209 18.427C134.953 19.5223 135.976 20.07 137.278 20.07C138.249 20.07 139.066 19.8633 139.727 19.45C140.409 19.0367 141.039 18.4167 141.618 17.59L142.238 18.055C141.556 19.1917 140.76 20.0183 139.851 20.535C138.942 21.0517 137.877 21.31 136.658 21.31ZM139.603 12.94C139.603 11.1213 139.334 9.73667 138.797 8.786C138.26 7.83533 137.443 7.36 136.348 7.36C135.728 7.36 135.17 7.608 134.674 8.104C134.178 8.57933 133.785 9.24067 133.496 10.088C133.227 10.9353 133.093 11.886 133.093 12.94H139.603ZM146.587 10.15C146.587 9.096 146.442 8.321 146.153 7.825C145.863 7.30833 145.285 7.05 144.417 7.05H143.797V6.43H146.587C147.351 6.43 147.93 6.53333 148.323 6.74C148.736 6.94667 149.036 7.25667 149.222 7.67H149.377C149.811 7.236 150.369 6.87433 151.051 6.585C151.753 6.275 152.539 6.12 153.407 6.12C154.957 6.12 156.217 6.53333 157.189 7.36C158.181 8.18667 158.677 9.63333 158.677 11.7V21H155.887V11.7C155.887 10.2533 155.556 9.19933 154.895 8.538C154.254 7.856 153.448 7.515 152.477 7.515C151.381 7.515 150.348 8.06267 149.377 9.158V21H146.587V10.15Z" fill="#252525"/>
</svg>
